PathFileType	4	(X/Y/Z)	C:/Users/beibeiliu/ov580/test_trc/User2\sequence.9_training_dense_right.trc
DataRate	CameraRate	NumFrames	NumMarkers	Units	OrigDataRate	OrigDataStartFrame	OrigNumFrames
120	120	25	19	mm	120	58	86
Frame#	Time	ThumbCMC			ThumbMCP			ThumbIP			ThumbTip			IndexMCP			IndexPIP			IndexTip			MiddleMCP			MiddlePIP			MiddleTip			RingMCP			RingPIP			RingTip			PinkyMCP			PinkyPIP			PinkyTip			BackHand1			BackHand2			BackHand3	
		X0	Y0	Z0	X1	Y1	Z1	X2	Y2	Z2	X3	Y3	Z3	X4	Y4	Z4	X5	Y5	Z5	X6	Y6	Z6	X7	Y7	Z7	X8	Y8	Z8	X9	Y9	Z9	X10	Y10	Z10	X11	Y11	Z11	X12	Y12	Z12	X13	Y13	Z13	X14	Y14	Z14	X15	Y15	Z15	X16	Y16	Z16	X17	Y17	Z17	X18	Y18	Z18	
57	0.475	123.845	139.297	-27.9241	97.4951	134.5	-52.4502	74.2378	109.888	-67.5279	63.314	92.4135	-68.7349	89.3149	80.1261	-80.7728	72.3654	61.1058	-90.3001	54.7621	40.0184	-99.8244	98.1505	56.4647	-78.1869	76.2141	39.272	-91.2719	59.8985	19.7135	-103.145	111.429	43.4627	-66.0858	93.7732	28.6944	-78.4618	72.2855	14.7289	-94.1775	124.754	36.545	-48.8332	107.536	25.9171	-60.7004	92.2344	9.81814	-78.6541	152.212	79.9959	-41.3136	172.701	94.8855	-26.7035	145.738	113.5	-46.572	
58	0.483333	135.865	140.521	-32.5147	111.97	145.102	-54.6782	86.0348	128.019	-72.8464	69.9523	105.956	-76.4616	94.1464	88.5303	-83.3878	71.2985	76.1628	-97.1405	52.2087	59.9146	-105.577	98.4989	66.6902	-81.1237	72.9676	49.0064	-94.4758	49.88	36.8782	-110.454	105.066	53.5944	-70.6008	84.6727	36.1908	-80.6289	64.1234	27.824	-94.6562	117.681	41.5283	-49.112	98.2606	30.9921	-62.1161	83.1751	19.9827	-78.4421	153.636	75.9325	-39.1336	178.795	91.3467	-23.1827	155.002	113.981	-46.9636	
59	0.491667	147.923	140.578	-32.9651	127.324	150.816	-60.4961	100.698	131.619	-76.007	80.6816	120.668	-83.6314	99.9874	100.298	-90.2103	78.2597	88.2008	-100.967	55.7322	73.0849	-111.65	96.9076	74.2711	-87.3371	72.8686	64.2074	-100.862	51.1813	54.0406	-114.749	102.311	57.1873	-73.8593	81.0445	47.6401	-85.5393	58.6303	40.3184	-98.9777	111.724	47.1441	-50.5605	90.671	39.64	-63.2043	73.1725	35.9912	-79.1392	149.815	74.1328	-44.0437	179.353	84.6879	-23.3392	163.353	110.277	-47.5215	
60	0.5	159.926	143.743	-34.7527	141.92	149.06	-61.1357	114.229	141.827	-83.3383	90.9567	132.079	-93.9578	105.919	103.568	-95.4072	81.7726	99.8443	-110.086	59.1658	91.2737	-123.196	102.745	84.8771	-90.8456	76.5096	81.2898	-106.143	48.2213	67.8675	-124.012	96.384	64.7911	-77.8009	76.7423	61.1589	-88.2068	53.613	56.3203	-105.464	103.218	54.4963	-51.9609	80.956	56.3809	-69.3384	66.3321	47.7162	-82.0644	149.39	72.0731	-43.255	176.011	78.4677	-22.583	165.988	106.255	-50.5349	
61	0.508333	167.188	139.137	-39.8966	155.882	152.748	-67.5609	127.128	146.736	-91.8682	105.437	138.465	-98.713	117.28	111.114	-98.7631	90.9881	105.566	-114.86	70.7614	105.216	-129.986	104.76	88.5632	-92.622	80.0916	90.9155	-114.748	56.1621	86.7649	-132.828	97.1739	77.2608	-81.4359	78.6008	75.2994	-93.7365	56.4627	72.0102	-112.085	97.0482	67.4043	-59.08	78.4215	66.487	-70.3987	61.7024	64.3616	-93.9	143.098	73.7189	-42.8534	169.342	75.3652	-20.7853	170.104	105.622	-50.3583	
62	0.516667	176.832	137.231	-41.5078	166.865	147.332	-70.3134	140.147	143.676	-98.786	120.088	141.746	-110.374	125.417	110.422	-101.863	104.509	109.797	-119.095	83.5294	110.078	-141.286	108.065	92.3213	-102.636	89.5767	96.5066	-121.3	64.6014	91.8447	-143.248	99.4065	80.6021	-83.2281	81.3218	83.5808	-104.747	60.9159	80.6934	-125.479	95.3755	72.7187	-59.6169	78.388	76.8253	-79.8813	65.3549	76.2468	-101.351	143.601	76.759	-41.2659	165.935	73.58	-16.1822	170.406	101.223	-49.1779	
63	0.525	182.346	136.158	-43.1892	175.158	144.102	-72.3406	154.608	143.396	-102.212	132.342	140.192	-118.984	136.095	107.771	-105.941	120.173	109.652	-131.213	96.8645	104.666	-147.94	120.159	91.0896	-104.465	103.242	93.0044	-125.565	80.3503	86.6282	-153.155	108.469	79.9266	-87.7122	91.3347	80.3433	-108.057	75.5138	79.748	-130.666	101.612	74.3686	-64.8812	89.1289	79.0357	-84.2132	77.1809	73.5431	-106.337	146.667	74.9805	-45.5349	168.184	75.5275	-15.4589	177.347	101.636	-49.4065	
64	0.533333	190.648	135.864	-37.0894	186.045	141.941	-74.7674	168.916	142.453	-102.889	148.325	135.355	-121.313	155.387	105.809	-109.837	136.89	102.926	-136.345	118.13	96.5474	-154.653	138.648	88.4708	-109.982	119.514	84.6057	-131.723	105.806	80.6423	-158.91	124.185	75.55	-93.404	107.466	71.7088	-117.498	97.8309	72.4082	-138.257	115.931	71.2476	-71.225	102.536	70.4941	-92.8296	93.6973	63.7319	-112.229	155.366	72.6441	-45.9774	175.314	73.4166	-15.825	186.786	98.6251	-45.5916	
65	0.541667	202.351	134.539	-39.6087	197.844	138.487	-71.4783	185.027	134.961	-103.875	167.873	129.64	-122.363	175.493	97.7213	-110.355	158.639	89.4634	-135.091	147.099	83.2651	-155.921	158.34	75.2135	-112.971	145.939	73.1139	-134.932	135.679	67.2328	-162.163	147.143	68.0476	-99.6013	135.808	64.1002	-120.966	126.14	59.1937	-147.291	136.365	62.7218	-76.7379	123.823	58.0201	-99.4821	120.172	53.8889	-118.65	174.078	69.3496	-43.7738	190.13	74.5392	-14.1087	201.916	93.5649	-46.7537	
66	0.55	214.499	133.728	-41.0851	211.288	137.827	-72.1337	200.755	128.174	-108.066	186.125	119.53	-124.843	198.914	87.8834	-113.329	192.699	81.6696	-136.692	181.008	68.6013	-163.385	190.872	67.1734	-111.358	180.645	58.8438	-138.454	171.596	46.4696	-167.925	177.766	52.9316	-102.688	169.444	45.9663	-126.011	163.348	41.8069	-149.824	166.651	48.8377	-78.3716	158.607	44.6826	-98.953	153.416	33.8438	-123.751	197.598	60.8971	-47.0172	208.894	70.3426	-15.6717	221.087	95.0678	-43.4281	
67	0.558333	218.669	136.286	-40.0145	215.547	138.963	-72.2471	206.918	125.479	-104.984	196.752	118.344	-126.037	217.563	88.1373	-112.915	212.693	80.316	-138.971	206.048	64.7341	-162.158	214.238	68.0064	-116.774	208.063	56.0694	-139.177	205.023	43.4725	-166.548	205.955	49.8352	-98.5046	201.007	42.94	-123.81	196.305	34.8477	-151.342	193.278	40.1262	-78.5453	189.95	36.3427	-106.796	188.562	27.0337	-125.793	219.669	63.8708	-44.6507	228.123	70.7362	-12.2027	235.033	100.84	-45.8186	
68	0.566667	212.533	138.279	-37.3009	209.531	142.646	-67.4279	205.047	134.067	-105.786	198.661	120.36	-125.664	226.62	96.6915	-110.007	225.343	85.8722	-135.027	223.291	76.4714	-162.295	231.295	71.9303	-116.052	227.589	63.2477	-139.643	229.715	52.2165	-168.657	227.684	53.8121	-100.779	225.058	49.5564	-125.435	225.877	42.074	-155.922	218.37	43.51	-81.1136	215.433	39.6629	-103.209	219.241	32.46	-131.021	235.839	72.4707	-44.8587	240.895	78.6344	-15.5307	239.414	105.855	-42.9672	
69	0.575	206.326	135.051	-36.669	200.217	144.1	-64.5229	199.007	134.456	-102.882	193.466	123.498	-121.542	228.726	109.489	-114.357	229.255	101.021	-137.464	231.038	91.5846	-162.478	239.339	88.4935	-114.616	238.339	81.1636	-141.513	244.277	67.6941	-170.023	241.972	68.1299	-100.468	240.463	64.1381	-125.822	245.278	54.0459	-155.054	236.59	55.4005	-84.1607	237.673	45.6173	-104.47	240.8	42.8354	-128.984	246.817	80.3028	-47.0495	247.398	94.191	-13.3166	236.396	120.488	-38.4699	
70	0.583333	198.681	134.758	-32.1216	191.143	142.343	-63.6754	188.535	138.454	-100.834	188.187	125.274	-122.349	227.544	115.587	-114.203	227.15	112.331	-138.209	230.421	105.834	-167.409	242.755	98.5073	-113.752	239.86	96.9688	-140.705	247.733	87.542	-169.465	247.141	83.4034	-102.711	249.065	79.9246	-127.375	252.624	78.0096	-156.26	248.21	67.47	-86.12	250.624	61.5129	-111.413	253.387	63.3799	-130.779	250.617	90.1013	-48.8319	250.607	100.304	-17.6226	236.181	126.768	-39.8188	
71	0.591667	192.858	131.86	-31.6131	179.914	141.964	-60.3139	181.753	131.919	-96.7468	181.284	122.842	-122.692	220.316	124.958	-111.778	222.64	118.163	-138.842	223.242	117.348	-163.043	236.608	112.499	-117.905	236.918	109.456	-142.221	242.501	107.614	-175.843	248.816	95.2186	-106.52	252.247	90.672	-129.558	254.78	95.4526	-160.797	254.144	76.5381	-85.7775	254.835	77.8934	-110.506	258.605	78.6951	-132.864	254.004	101.284	-47.0359	250.579	108.916	-13.337	228.001	130.331	-35.4304	
72	0.6	186.412	127.579	-26.5155	173.122	135.411	-59.7638	173.383	129.243	-94.6476	174.2	119.892	-118.939	212.55	130.004	-108.205	212.983	127.229	-139.442	215.699	124.91	-165.298	230.513	121.652	-117.01	232.065	119.341	-145.329	232.758	121.773	-173.315	245.279	108.538	-106.102	244.647	108.936	-134.074	250.085	110.492	-161.664	254.164	90.955	-87.4325	254.723	93.1508	-117.53	261.296	97.3437	-140.213	251.339	112.01	-49.2701	251.469	116.182	-20.1454	220.22	136.063	-40.045	
73	0.608333	180.349	123.256	-29.2352	160.364	128.948	-56.5837	162.642	122.512	-91.57	165.009	116.187	-115.95	199.464	134.042	-109.543	195.798	133.314	-136.812	200.095	132.794	-161.868	218.918	129.993	-116.803	218.96	127.769	-142.897	219.781	132.176	-173.643	236.482	119.242	-107.155	239.494	120.211	-135.479	238.031	124.786	-162.518	252.369	102.547	-91.0721	253.621	105.423	-118.825	253.603	114.483	-142.926	242.548	120.796	-53.4676	243.728	124.699	-18.7885	210.516	137.357	-36.3669	
74	0.616667	172.283	115.734	-27.0797	154.836	117.499	-56.2448	152.484	112.762	-88.998	157.326	106.172	-114.593	185.02	131.827	-108.771	182.649	131.572	-137.573	187.631	130.272	-162.248	204.691	131.974	-117.45	205.6	131.299	-146.319	205.687	135.775	-172.948	226.104	126.09	-107.953	225.433	127.178	-139.332	222.451	131.075	-161.064	244.385	113.287	-92.8211	241.897	117.29	-122.252	237.062	123.457	-144.768	235.859	128.265	-55.7857	234.738	132.02	-19.3919	199.433	138.782	-40.2074	
75	0.625	160.775	108.497	-25.556	140.901	105.075	-50.9042	138.258	98.8251	-85.4548	142.904	93.5539	-114.61	169.294	121.367	-109.861	167.178	118.703	-135.883	166.412	118.432	-162.232	187.094	125.369	-113.602	185.009	122.957	-146.002	185.408	125.567	-177.477	210.744	122.99	-113.168	207.182	121.991	-133.646	204.254	123.663	-162.796	231.63	114.821	-92.0237	229.212	115.393	-117.475	223.602	120.603	-143.834	221.498	130.518	-55.7166	220.628	134.655	-20.9294	182.193	135.942	-39.5378	
76	0.633333	146.97	102.425	-21.0733	128.502	94.9179	-51.5887	127.47	83.6873	-82.4696	129.37	74.2556	-108.259	156.444	107.48	-104.721	149.698	99.8093	-131.771	154.763	96.1732	-162.634	171.434	110.383	-114.683	171.557	104.068	-143.662	168.536	101.65	-171.21	193.314	110.433	-108.152	192.103	106.567	-136.234	188.229	104.555	-160.718	214.541	106.905	-90.8323	212.324	104.033	-115.477	204.644	106.222	-141.388	202.56	126.213	-51.0111	205.328	137.344	-25.026	167.915	129.993	-35.0547	
77	0.641667	133.392	96.7233	-18.7399	119.065	83.9438	-43.38	116.219	70.9824	-76.2628	120.709	58.0687	-100.847	140.2	90.3613	-105.81	140.682	80.3302	-128.847	145.255	74.7687	-155.488	161.809	93.4493	-112.502	158.148	83.3023	-137.107	161.161	79.7335	-167.502	185.03	95.326	-110.334	179.398	87.5404	-128.67	175.542	84.0528	-154.089	207.163	95.2564	-89.1358	203.453	88.4757	-114.323	197.884	87.1872	-139.597	190.24	117.591	-53.1406	192.496	130.484	-24.9122	157.357	121.564	-37.4947	
78	0.65	123.088	95.3126	-14.3222	106.016	80.5541	-38.4456	106.83	63.6315	-76.3266	116.224	50.3132	-95.0922	134.945	81.0245	-97.638	130.465	68.6599	-123.537	136.399	59.0214	-149.541	153.436	83.9786	-105.387	154.78	70.6536	-132.946	152.476	62.7465	-160.873	176.718	84.2237	-104.086	175.393	75.5443	-127.196	169.737	67.4361	-151.622	196.506	84.918	-87.7753	196.044	76.961	-107.466	188.065	73.6269	-130.465	180.177	114.324	-51.0661	178.317	130.167	-21.7792	146.704	117.239	-37.4428	
79	0.658333	115.206	96.6249	-14.2479	97.4993	82.3365	-37.8661	98.8985	62.3984	-63.9823	106.116	46.9274	-86.3502	123.964	72.4481	-97.5175	126.597	58.4965	-120.555	124.338	44.4715	-142.344	144.135	74.8944	-101.999	144.774	58.8145	-126.102	142.72	45.9325	-157.927	166.731	76.1931	-96.0186	164.866	63.0582	-121.01	161.819	51.1968	-147.12	189.603	76.9032	-82.9118	182.412	64.9076	-101.383	182.064	59.3987	-127.1	173.32	110.448	-48.4544	171.534	127.27	-24.2383	138.325	115.975	-34.5521	
80	0.666667	110.37	102.439	-10.7773	91.7558	86.318	-36.5725	90.1634	63.7067	-61.7997	90.3538	44.7211	-80.3497	120.61	66.216	-91.6309	115.805	48.9181	-111.016	115.951	31.5176	-131.91	139.047	62.8128	-96.5475	138.022	44.6073	-118.636	132.315	29.7136	-143.683	160.163	63.9875	-89.8598	156.031	47.6904	-109.497	150.838	33.5932	-134.847	178.671	63.708	-73.3278	175.883	48.0237	-95.4194	171.477	37.4097	-118.581	168.636	101.993	-45.4053	171.605	120.729	-21.7556	136.027	114.287	-33.0157	
81	0.675	111.08	110.546	-12.157	90.5718	96.7902	-34.6041	83.3044	72.0849	-58.7178	85.5474	50.3388	-71.126	111.309	61.9316	-85.0999	105.29	41.7589	-101.399	101.636	21.0305	-120.822	132.913	49.6763	-90.2271	125.49	27.8311	-108.304	117.683	12.1862	-129.972	152.6	46.7825	-81.9956	143.198	30.4177	-100.272	139.918	12.1253	-121.272	169.21	44.7844	-63.5087	164.268	28.3521	-81.6294	157.762	18.8942	-101.868	170.01	89.7873	-38.8705	179.795	110.833	-18.8017	144.18	110.962	-34.4102	
